<svg xmlns="http://www.w3.org/2000/svg" viewBox="0 0 1200 800" preserveAspectRatio="xMidYMid slice"><defs><linearGradient id="s" x1="0" y1="0" x2="0" y2="1"><stop offset="0" stop-color="#f0b98a"/><stop offset="1" stop-color="#f7e3c8"/></linearGradient><radialGradient id="g"><stop offset="0" stop-color="#fff1d6" stop-opacity=".9"/><stop offset="1" stop-color="#fff1d6" stop-opacity="0"/></radialGradient><filter id="b"><feGaussianBlur stdDeviation="3"/></filter></defs><rect width="1200" height="800" fill="url(#s)"/><circle cx="365" cy="283" r="260" fill="url(#g)"/><path d="M0 800 L0 374.2 L40 356.4 L80 348.7 L120 339.6 L160 325.9 L200 319.6 L240 317.0 L280 325.0 L320 324.5 L360 326.2 L400 336.6 L440 343.6 L480 359.0 L520 376.8 L560 388.1 L600 402.4 L640 407.9 L680 426.0 L720 430.4 L760 438.4 L800 442.4 L840 440.9 L880 441.3 L920 431.2 L960 420.8 L1000 418.0 L1040 399.7 L1080 390.8 L1120 371.5 L1160 363.0 L1200 354.5 L1240 341.9 L1200 800Z" fill="#c98a63" filter="url(#b)"/><path d="M0 800 L0 462.8 L40 448.0 L80 439.3 L120 436.5 L160 435.2 L200 427.5 L240 421.3 L280 426.2 L320 426.5 L360 423.4 L400 427.3 L440 433.1 L480 434.0 L520 441.2 L560 451.2 L600 460.8 L640 467.0 L680 479.7 L720 481.1 L760 487.9 L800 504.8 L840 506.0 L880 515.6 L920 522.9 L960 519.0 L1000 528.8 L1040 523.4 L1080 526.7 L1120 522.2 L1160 525.1 L1200 518.6 L1240 509.0 L1200 800Z" fill="#9b6247"/><path d="M0 800 L0 595.9 L40 595.5 L80 585.7 L120 577.7 L160 569.9 L200 568.1 L240 564.8 L280 554.7 L320 548.1 L360 550.1 L400 542.0 L440 541.8 L480 535.4 L520 530.4 L560 530.3 L600 522.8 L640 525.2 L680 526.6 L720 528.0 L760 524.5 L800 532.0 L840 537.2 L880 538.1 L920 540.7 L960 542.4 L1000 553.6 L1040 553.2 L1080 562.3 L1120 563.8 L1160 573.9 L1200 584.1 L1240 585.1 L1200 800Z" fill="#6b412f"/><path d="M0 800 L0 633.5 L40 628.5 L80 631.7 L120 632.5 L160 625.1 L200 627.7 L240 631.8 L280 634.0 L320 639.6 L360 636.5 L400 636.4 L440 641.9 L480 651.7 L520 646.4 L560 656.9 L600 656.0 L640 665.6 L680 670.6 L720 666.4 L760 676.4 L800 676.8 L840 685.5 L880 681.2 L920 687.9 L960 695.7 L1000 690.6 L1040 697.6 L1080 694.3 L1120 699.9 L1160 705.1 L1200 700.5 L1240 698.4 L1200 800Z" fill="#3d261c"/></svg>